Coordinates
version=1
nRows=29
nColumns=24
inDegrees=yes

Units are S.I. units (second, meters, Newtons, ...)
Angles are in degrees.

endheader
time	pelvis_tilt	pelvis_list	pelvis_rotation	pelvis_tx	pelvis_ty	pelvis_tz	hip_flexion_r	hip_adduction_r	hip_rotation_r	knee_angle_r	ankle_angle_r	subtalar_angle_r	mtp_angle_r	hip_flexion_l	hip_adduction_l	hip_rotation_l	knee_angle_l	ankle_angle_l	subtalar_angle_l	mtp_angle_l	lumbar_extension	lumbar_bending	lumbar_rotation
      0.47900000	     -3.54443743	      0.09731260	      4.32034608	     -0.73632202	      1.02603650	      0.27285848	     20.97167747	      1.91734151	     -9.34775714	      6.43967600	      5.11065686	     -0.00637896	     13.16187909	    -10.92239528	      3.66304738	      6.59787862	    -11.74303077	      6.59940030	     -3.85484780	      2.95392635	     -2.56526516	     -1.95202574	     -5.65959566
      0.48316667	     -3.50894181	      0.04326816	      4.43577739	     -0.73046799	      1.02565660	      0.27285116	     20.89200835	      1.99757091	     -8.86886010	      6.03856700	      5.47771188	     -0.24426066	      8.85159747	    -10.91042356	      3.57293958	      6.55108116	    -12.49133977	      6.56253104	     -3.72634555	      2.14241436	     -2.53926066	     -1.88185052	     -5.66495477
      0.48733333	     -3.42323354	     -0.04477734	      4.60237485	     -0.72456438	      1.02539501	      0.27275942	     20.77630918	      2.09877295	     -8.61743876	      5.56496400	      5.73918368	     -0.39794248	      8.86613950	    -10.94547165	      3.43897599	      6.62311326	    -13.24618631	      6.41198872	     -3.69623709	      2.15467735	     -2.58176243	     -1.77040013	     -5.69321880
      0.49150000	     -3.31230917	     -0.11586153	      4.75130637	     -0.71863845	      1.02515446	      0.27271781	     20.60838332	      2.19465077	     -8.19926736	      5.10960886	      5.87335049	     -0.81824419	      8.92611128	    -10.95555704	      3.30498277	      6.48577070	    -14.09852982	      6.34868214	     -3.35717465	      2.29779209	     -2.64551825	     -1.65844447	     -5.86871860
      0.49566667	     -3.20562929	     -0.22035006	      4.91094582	     -0.71263640	      1.02492413	      0.27264220	     20.44403070	      2.32336479	     -7.83236099	      4.62759746	      5.94251681	     -1.30210597	      9.03871946	    -10.95852931	      3.14115831	      6.42929904	    -14.95323943	      6.20439164	     -3.15313082	      2.58703898	     -2.67985669	     -1.49331305	     -5.92747464
      0.49983333	     -3.05129415	     -0.30470380	      5.05320914	     -0.70664140	      1.02476929	      0.27261606	     20.23671606	      2.44478514	     -7.46429960	      4.11196097	      5.95686821	     -1.80348785	      9.15915878	    -10.99049041	      2.99236494	      6.31555715	    -15.83956750	      6.00652421	     -2.97116559	      2.90642063	     -2.79822179	     -1.37652998	     -6.02367402
      0.50400000	     -2.93571189	     -0.40057132	      5.20731694	     -0.70058792	      1.02456512	      0.27255822	     20.06877679	      2.57155052	     -7.12259277	      3.58386475	      5.90587874	     -2.37499442	     10.33687428	    -10.96776777	      2.83763577	      6.26316606	    -16.74219077	      5.66533972	     -2.91758898	      6.22502604	     -2.83489864	     -1.22895790	     -6.05751938
      0.50816667	     -2.76128464	     -0.51608491	      5.34345084	     -0.69448222	      1.02445851	      0.27254603	     19.83294428	      2.73471820	     -6.80280024	      3.05605288	      5.84762301	     -2.87592912	     10.35770522	    -10.98186062	      2.64327753	      6.07528926	    -17.69014060	      5.33724650	     -2.68427428	      6.28907940	     -2.94459886	     -1.04293904	     -6.15405936
      0.51233333	     -2.58940120	     -0.60265225	      5.49790891	     -0.68841002	      1.02435977	      0.27254770	     19.58237403	      2.87126097	     -6.42201288	      2.57127889	      5.54107943	     -3.70433913	     10.40701915	    -10.95552645	      2.47070604	      5.88833292	    -18.70126228	      5.07210828	     -2.42877096	      6.48707714	     -3.06098443	     -0.92438080	     -6.22958831
      0.51650000	     -2.43459156	     -0.69661885	      5.63513317	     -0.68229108	      1.02424148	      0.27258313	     19.34866329	      3.02207403	     -6.03743417	      2.08595238	      5.21771253	     -4.50992968	     10.48107140	    -10.89586100	      2.29147106	      5.68556097	    -19.73516633	      4.68129427	     -2.22619190	      6.78031578	     -3.14482302	     -0.78483450	     -6.29066284
      0.52066667	     -2.26576306	     -0.79246694	      5.77447100	     -0.67615027	      1.02415266	      0.27263629	     19.09183323	      3.18012473	     -5.66501793	      1.62046019	      4.81991315	     -5.35217842	     10.57962096	    -10.82695086	      2.09707050	      5.44464134	    -20.79756576	      4.26096070	     -1.98651973	      7.18605434	     -3.24080553	     -0.64196265	     -6.34558623
      0.52483333	     -2.11252711	     -0.89323126	      5.90882942	     -0.66999200	      1.02406048	      0.27272776	     18.84969904	      3.34712253	     -5.29982461	      1.16456377	      4.35151389	     -6.22377864	     10.69838908	    -10.71349597	      1.88964867	      5.17005365	    -21.90213676	      3.76709943	     -1.74905593	      7.70276996	     -3.31400158	     -0.49832368	     -6.39468320
      0.52900000	     -1.92531568	     -0.99314021	      6.04035869	     -0.66381084	      1.02404613	      0.27283489	     18.57572873	      3.51786237	     -5.01607179	      0.70305712	      3.87215459	     -6.96389702	     11.88328673	    -10.62271373	      1.66794479	      4.86876042	    -22.99206015	      3.03243687	     -1.60800948	     12.93746684	     -3.42031562	     -0.35237163	     -6.40199435
      0.53316667	     -1.76346094	     -1.09607492	      6.16609964	     -0.65763136	      1.02399804	      0.27298682	     18.32302742	      3.69561101	     -4.69664647	      0.25999331	      3.32436223	     -7.78419616	     11.88758438	    -10.46363498	      1.43073032	      4.50500266	    -24.16731742	      2.44062621	     -1.31570077	     13.04628524	     -3.49585260	     -0.20733435	     -6.46381312
      0.53733333	     -1.60061451	     -1.20277472	      6.28627760	     -0.65144168	      1.02398689	      0.27317748	     18.06345585	      3.88238917	     -4.37001321	     -0.16647239	      2.73105841	     -8.62561194	     11.90666461	    -10.28517509	      1.18054316	      4.13925569	    -25.35826342	      1.73796138	     -1.07480582	     13.26257074	     -3.57120080	     -0.06625353	     -6.48717720
      0.54150000	     -1.45049652	     -1.29943516	      6.40104960	     -0.64526434	      1.02398201	      0.27340442	     17.82207212	      4.05979737	     -4.05874279	     -0.60028223	      2.13023530	     -9.43233174	     11.93995610	    -10.06460510	      0.92844098	      3.74123939	    -26.57836825	      0.97536766	     -0.81591965	     13.58283646	     -3.63286939	      0.05873776	     -6.50573949
      0.54566667	     -1.29358596	     -1.40831089	      6.51292496	     -0.63908034	      1.02401664	      0.27366621	     17.57335918	      4.25286447	     -3.77303174	     -1.02897318	      1.52005820	    -10.20170275	     11.98311141	     -9.82264679	      0.64488858	      3.30902633	    -27.83026358	      0.14243187	     -0.55201033	     13.99999468	     -3.69827124	      0.19684547	     -6.51402162
      0.54983333	     -1.12251576	     -1.50844331	      6.62785540	     -0.63290559	      1.02411840	      0.27393133	     17.31970054	      4.43344112	     -3.56795581	     -1.48126239	      0.96467466	    -10.82508043	     12.54457731	     -9.58354706	      0.36029268	      2.90245507	    -29.06279886	     -0.93092299	     -0.41426632	     18.91071122	     -3.77710437	      0.33006935	     -6.48153335
      0.55400000	     -0.96115142	     -1.63587000	      6.72467494	     -0.62674003	      1.02420466	      0.27426507	     17.08769318	      4.64853646	     -3.35510493	     -1.95260462	      0.44703323	    -11.42242217	     12.53705206	     -9.29070272	      0.02641374	      2.42351218	    -30.37389673	     -1.87337623	     -0.12959562	     18.98885308	     -3.85423552	      0.48111473	     -6.50363131
      0.55816667	     -0.81594436	     -1.74518633	      6.82345528	     -0.62059225	      1.02434023	      0.27460573	     16.87123071	      4.84047992	     -3.15889153	     -2.42552685	     -0.06381162	    -11.99406589	     12.53161739	     -8.96219918	     -0.29085569	      1.98324258	    -31.68438632	     -2.97339842	      0.04635999	     19.14276760	     -3.90574449	      0.60860464	     -6.48386347
      0.56233333	     -0.67863441	     -1.86474294	      6.91555871	     -0.61446393	      1.02447343	      0.27498106	     16.67463175	      5.04163327	     -2.99932410	     -2.92075585	     -0.51593800	    -12.49204078	     12.52833458	     -8.59655159	     -0.63318994	      1.53387477	    -33.02439386	     -4.09728419	      0.25709012	     19.36427318	     -3.94916400	      0.74693727	     -6.45625429
      0.56650000	     -0.57287879	     -1.98837044	      7.00078934	     -0.60835501	      1.02459253	      0.27537262	     16.52549605	      5.24029402	     -2.89164865	     -3.44745192	     -0.89538497	    -12.87187334	     12.52367325	     -8.16702668	     -0.98569709	      1.08507021	    -34.39199539	     -5.29874286	      0.41768823	     19.59079111	     -3.95822054	      0.88173336	     -6.42751176
      0.57066667	     -0.39605395	     -2.11935164	      7.09232316	     -0.60225894	      1.02485927	      0.27575750	     16.30320559	      5.44730372	     -2.87617133	     -3.98916973	     -1.12700567	    -13.03099103	     12.51976260	     -7.79985122	     -1.36553881	      0.66463670	    -35.75030197	     -6.57158028	      0.61472032	     19.66816442	     -4.05380836	      1.03076880	     -6.39875220
      0.57483333	     -0.31375273	     -2.23674752	      7.16007725	     -0.59621681	      1.02500636	      0.27621002	     16.18358809	      5.63804515	     -2.78615076	     -4.52791268	     -1.46285762	    -13.41126963	     12.50633670	     -7.29523395	     -1.72576953	      0.23588155	    -37.15040171	     -7.86913261	      0.70269911	     19.87101182	     -4.04218987	      1.15308386	     -6.34137863
      0.57900000	     -0.15840107	     -2.36915766	      7.24025658	     -0.59019034	      1.02528763	      0.27664400	     15.98373729	      5.84305558	     -2.80617555	     -5.06958302	     -1.61619602	    -13.51842991	     12.49975570	     -6.85321465	     -2.12381388	     -0.15920556	    -38.54429674	     -9.21627250	      0.89260603	     19.92460845	     -4.11985564	      1.30756320	     -6.30444544
      0.58316667	     -0.03848218	     -2.50598057	      7.30781084	     -0.58420252	      1.02554488	      0.27709437	     15.82461402	      6.04827817	     -2.82985107	     -5.61684823	     -1.76559357	    -13.62847810	     12.48998898	     -6.34857275	     -2.51953484	     -0.52068586	    -39.94959931	    -10.58438694	      0.99279849	     19.96607633	     -4.15696313	      1.45342229	     -6.25467340
      0.58733333	      0.04199573	     -2.62493592	      7.36243138	     -0.57828236	      1.02577718	      0.27755913	     15.71795280	      6.22799619	     -2.88088693	     -6.18706220	     -1.88881975	    -13.73406633	     12.46690590	     -5.78115036	     -2.88364768	     -0.84014726	    -41.36220196	    -11.98639685	      0.96723012	     20.02009310	     -4.16061996	      1.56580973	     -6.17792086
      0.59150000	      0.12613658	     -2.74847213	      7.41510992	     -0.57239747	      1.02601587	      0.27802200	     15.59852583	      6.40910738	     -2.96418899	     -6.74227980	     -1.93332681	    -13.74726410	     12.44131278	     -5.19603820	     -3.25715241	     -1.13297167	    -42.77935756	    -13.37937982	      0.99678248	     20.02138012	     -4.16795862	      1.69214430	     -6.10724737
      0.59566667	      0.20415341	     -2.87511763	      7.46288218	     -0.56655333	      1.02626540	      0.27848624	     15.48185688	      6.58935056	     -3.08277053	     -7.29051394	     -1.92821578	    -13.69164172	     12.40905426	     -4.58625981	     -3.62995780	     -1.38796094	    -44.19240395	    -14.74232276	      1.00328120	     19.95564262	     -4.17323026	      1.82199048	     -6.03168169
